<?xml version="1.0" standalone="no"?>
<!DOCTYPE svg PUBLIC "-//W3C//DTD SVG 20010904//EN"
 "http://www.w3.org/TR/2001/REC-SVG-20010904/DTD/svg10.dtd">
<svg version="1.0" xmlns="http://www.w3.org/2000/svg"
 width="800.000000pt" height="199.000000pt" viewBox="0 0 800.000000 199.000000"
 preserveAspectRatio="xMidYMid meet">

<g transform="translate(0.000000,199.000000) scale(0.100000,-0.100000)"
fill="#000000" stroke="none">
<path d="M826 1970 c-33 -6 -84 -53 -413 -381 -206 -206 -379 -382 -385 -393
-15 -27 -24 -187 -16 -293 28 -385 304 -731 678 -851 114 -36 182 -46 315 -45
105 1 149 6 229 27 87 22 294 111 284 121 -2 2 -30 -6 -63 -17 -83 -29 -229
-35 -319 -14 -148 35 -292 137 -376 267 -116 179 -123 429 -18 619 69 125 197
233 329 280 88 31 250 38 339 16 215 -54 381 -215 446 -431 28 -92 24 -249 -7
-342 -14 -39 -22 -70 -18 -67 4 2 25 41 47 86 80 164 108 303 99 490 -6 150
-31 249 -93 377 -59 123 -113 199 -211 292 -136 130 -309 220 -491 255 -77 15
-288 17 -356 4z"/>
<path d="M3930 1660 c0 -23 4 -30 20 -30 16 0 20 7 20 30 0 23 -4 30 -20 30
-16 0 -20 -7 -20 -30z"/>
<path d="M4590 1475 c0 -208 1 -215 20 -215 19 0 20 7 20 215 0 208 -1 215
-20 215 -19 0 -20 -7 -20 -215z"/>
<path d="M2291 1554 c-31 -22 -61 -90 -61 -139 0 -49 30 -117 61 -139 43 -29
125 -17 156 23 11 14 12 11 13 -17 0 -50 -24 -89 -65 -102 -33 -11 -55 -9
-107 6 -13 4 -18 0 -18 -15 0 -26 32 -35 110 -29 110 8 133 59 128 289 -3 130
-4 134 -25 137 -19 3 -23 -1 -23 -25 -1 -24 -2 -26 -13 -12 -31 40 -113 52
-156 23z m113 -28 c78 -33 75 -197 -4 -224 -67 -24 -120 25 -120 112 0 60 18
96 55 112 37 16 30 16 69 0z"/>
<path d="M2663 1549 c-46 -30 -66 -79 -61 -155 4 -68 25 -101 80 -130 58 -30
188 -11 188 28 0 15 -4 18 -17 13 -10 -5 -45 -10 -79 -13 -53 -4 -64 -1 -87
19 -15 13 -31 39 -36 57 l-10 32 120 0 119 0 0 35 c0 44 -21 86 -56 114 -36
28 -117 28 -161 0z m143 -43 c12 -11 25 -31 29 -43 6 -23 5 -23 -89 -23 -85 0
-96 2 -96 18 0 29 29 61 63 71 40 11 66 5 93 -23z"/>
<path d="M2970 1416 l0 -156 25 0 25 0 0 110 c0 104 1 112 25 135 17 18 35 25
64 25 61 0 71 -21 71 -157 l0 -113 25 0 c25 0 25 0 25 98 0 158 -26 212 -102
212 -43 0 -97 -24 -99 -43 -1 -6 -4 -1 -8 13 -4 15 -15 26 -29 28 -22 3 -22 3
-22 -152z"/>
<path d="M3383 1551 c-44 -28 -64 -71 -64 -142 -1 -71 25 -119 75 -143 65 -31
196 -14 196 26 0 15 -4 18 -17 13 -10 -5 -46 -10 -79 -13 -57 -4 -64 -2 -92
24 -16 16 -33 41 -36 57 l-6 27 120 0 120 0 0 30 c0 40 -22 90 -49 114 -33 30
-126 33 -168 7z m147 -49 c11 -13 20 -33 20 -43 0 -17 -9 -19 -94 -19 l-95 0
10 29 c13 36 28 50 66 60 40 11 71 2 93 -27z"/>
<path d="M3690 1415 c0 -148 1 -155 20 -155 19 0 20 7 20 90 0 137 25 180 104
180 29 0 36 4 36 20 0 31 -69 28 -109 -6 l-31 -26 0 26 c0 19 -5 26 -20 26
-19 0 -20 -7 -20 -155z"/>
<path d="M3930 1415 c0 -148 1 -155 20 -155 19 0 20 7 20 155 0 148 -1 155
-20 155 -19 0 -20 -7 -20 -155z"/>
<path d="M4133 1550 c-44 -27 -65 -71 -65 -141 0 -71 23 -117 72 -141 63 -32
170 -18 170 22 0 17 -3 18 -26 10 -14 -6 -45 -10 -69 -10 -36 0 -48 5 -68 30
-60 71 -39 188 39 209 31 9 88 2 113 -13 7 -5 11 2 11 17 0 29 -20 37 -95 37
-32 0 -61 -7 -82 -20z"/>
<path d="M4792 1558 c-52 -26 -84 -127 -63 -204 16 -59 59 -96 119 -102 97 -9
152 47 152 156 0 108 -45 162 -134 161 -28 0 -61 -5 -74 -11z m143 -62 c21
-34 27 -81 15 -126 -16 -60 -42 -82 -92 -78 -58 4 -83 40 -83 118 0 92 49 140
118 117 15 -5 34 -19 42 -31z"/>
<path d="M5134 1552 c-42 -34 -56 -69 -56 -137 0 -102 42 -154 125 -155 38 0
53 5 72 25 l25 24 0 -37 c0 -21 -7 -47 -15 -59 -22 -32 -84 -49 -126 -34 -44
15 -49 14 -49 -9 0 -41 151 -41 195 0 37 35 45 79 45 248 0 153 0 153 -22 150
-15 -2 -24 -11 -26 -24 -3 -22 -3 -22 -27 2 -30 30 -108 33 -141 6z m110 -22
c75 -28 75 -202 0 -230 -34 -13 -67 -4 -96 27 -32 34 -34 139 -3 173 32 36 61
45 99 30z"/>
<path d="M5509 1555 c-39 -21 -60 -60 -66 -121 -12 -109 43 -184 135 -184 87
0 132 46 139 144 7 76 -13 128 -59 156 -39 23 -110 26 -149 5z m100 -26 c41
-14 61 -54 61 -123 0 -73 -33 -116 -89 -116 -57 0 -84 34 -89 113 -3 53 -1 66
18 90 13 16 32 33 44 37 11 5 21 9 22 9 1 1 15 -4 33 -10z"/>
<path d="M2477 1010 c-98 -25 -187 -105 -222 -201 -29 -79 -27 -232 5 -314 31
-80 106 -155 180 -181 73 -24 204 -23 280 2 l55 19 3 48 c2 26 2 47 0 47 -2 0
-31 -10 -63 -21 -81 -29 -185 -30 -240 -2 -46 24 -75 54 -101 103 -23 46 -31
193 -13 257 18 64 89 137 149 153 58 16 157 7 217 -20 25 -11 47 -20 49 -20 2
0 4 22 4 49 l0 49 -47 17 c-57 20 -202 28 -256 15z"/>
<path d="M3132 1001 c-135 -47 -214 -202 -198 -389 18 -202 127 -314 306 -316
94 0 144 14 203 59 118 90 159 343 82 501 -67 137 -236 199 -393 145z m198
-93 c75 -38 120 -133 120 -253 0 -165 -80 -270 -205 -268 -89 1 -149 49 -180
144 -24 72 -17 228 12 284 56 107 154 142 253 93z"/>
<path d="M4006 1008 c-23 -7 -58 -29 -87 -57 l-49 -47 0 48 0 48 -55 0 -55 0
0 -345 0 -345 55 0 55 0 0 233 c0 203 3 237 19 272 22 50 69 91 119 105 51 14
71 12 118 -9 73 -33 78 -56 82 -348 l4 -253 54 0 54 0 0 233 c0 203 3 237 19
272 58 128 238 153 299 41 14 -26 17 -69 20 -288 l3 -258 55 0 54 0 0 238 c0
264 -10 330 -59 392 -45 57 -104 82 -181 77 -94 -6 -178 -57 -218 -131 -9 -18
-12 -16 -30 21 -49 96 -152 133 -276 101z"/>
<path d="M5234 1002 c-49 -20 -72 -38 -102 -76 l-22 -29 0 52 0 51 -55 0 -55
0 0 -475 0 -475 55 0 55 0 0 182 0 182 35 -41 c86 -101 257 -107 359 -12 110
100 144 345 71 495 -67 137 -212 199 -341 146z m156 -95 c31 -16 51 -38 74
-77 26 -47 31 -66 34 -146 7 -161 -44 -265 -143 -293 -54 -15 -73 -14 -120 8
-91 41 -129 129 -123 280 3 85 7 103 34 151 37 64 93 100 159 100 24 0 60 -10
85 -23z"/>
<path d="M5915 1002 c-39 -10 -76 -21 -83 -26 -10 -6 -19 -96 -9 -96 1 0 27
10 57 22 78 31 229 32 280 2 45 -26 80 -78 80 -119 l0 -32 -132 -6 c-163 -7
-225 -24 -278 -77 -78 -78 -81 -229 -7 -308 43 -46 96 -66 177 -66 89 0 155
25 206 80 l34 35 0 -50 0 -51 56 0 55 0 -3 258 c-3 236 -5 261 -24 302 -46 98
-122 142 -254 147 -58 2 -108 -3 -155 -15z m323 -407 c-6 -72 -40 -141 -86
-173 -84 -61 -219 -46 -257 28 -21 41 -19 108 5 147 27 45 87 61 229 62 l114
1 -5 -65z"/>
<path d="M6835 1004 c-22 -8 -61 -36 -87 -61 l-48 -47 0 52 0 52 -55 0 -55 0
0 -345 0 -345 54 0 54 0 4 238 c3 236 3 237 30 282 67 115 241 130 304 26 17
-28 19 -57 22 -288 l3 -258 55 0 55 0 -3 267 c-3 302 -9 326 -81 390 -60 53
-166 68 -252 37z"/>
<path d="M7333 988 c2 -7 62 -152 132 -323 70 -171 131 -319 135 -330 10 -27
-49 -157 -81 -178 -13 -9 -48 -19 -76 -23 l-53 -7 0 -38 0 -39 73 0 c89 0 131
19 170 78 23 34 357 846 357 867 0 3 -25 5 -56 3 l-56 -3 -108 -270 c-98 -245
-109 -268 -119 -245 -6 14 -55 135 -109 270 l-98 245 -58 3 c-45 2 -57 0 -53
-10z"/>
</g>
</svg>
